[Header]
FileType HTR
DataType HTRS
FileVersion 1
NumSegments 22
NumFrames 4
DataFrameRate 24
EulerRotationOrder ZYX
CalibrationUnits mm
RotationUnits Degrees
GlobalAxisofGravity Y
BoneLengthAxis Y
ScaleFactor 1.0
[SegmentNames&Hierarchy]
reference	GLOBAL
Hips	reference
Spine	Hips
Spine1	Spine
Neck	Spine1
Head	Neck
LeftShoulder	Spine1
LeftArm	LeftShoulder
LeftForeArm	LeftArm
LeftHand	LeftForeArm
RightShoulder	Spine1
RightArm	RightShoulder
RightForeArm	RightArm
RightHand	RightForeArm
LeftUpLeg	Hips
LeftLeg	LeftUpLeg
LeftFoot	LeftLeg
LeftToeBase	LeftFoot
RightUpLeg	Hips
RightLeg	RightUpLeg
RightFoot	RightLeg
RightToeBase	RightFoot
[BasePosition]
reference	0	0	0	0	0	0	1
Hips	0	0	0	0	0	0	1
Spine	0	0	0	0	-0	90	1
Spine1	0	0	0	0	0	0	1
Neck	0	0	0	-7.352327771	-7.352327771	90	1
Head	0	0	0	0	-0	90	1
LeftShoulder	0	0	0	0	0	0	1
LeftArm	0	0	0	0	0	0	1
LeftForeArm	0	0	0	0	0	0	1
LeftHand	0	0	0	0	0	0	1
RightShoulder	0	0	0	0	-0	180	1
RightArm	0	0	0	0	-0	180	1
RightForeArm	0	0	0	0	-0	180	1
RightHand	0	0	0	0	-0	180	1
LeftUpLeg	0	0	0	0	-0	-90	1
LeftLeg	0	0	0	0	-0	-90	1
LeftFoot	0	0	0	66.57146043	-66.57146043	-90	1
LeftToeBase	0	0	0	0	-90	0	1
RightUpLeg	0	0	0	0	-0	-90	1
RightLeg	0	0	0	0	-0	-90	1
RightFoot	0	0	0	66.57146043	-66.57146043	-90	1
RightToeBase	0	0	0	0	-90	0	1
[reference]
10	0	0	0	0	-0	0	1.0
11	0	0	0	0	-0	0	1.0
12	0	0	0	0	-0	0	1.0
13	0	0	0	0	-0	0	1.0
[Hips]
10	1.498596907	8.415380478	0.1519799978	-7.550724983	-104.1589355	7.644763947	1.0
11	1.508169889	8.415380478	0.1519799978	-7.529053211	-103.9398956	7.684934139	1.0
12	1.517764568	8.415380478	0.1519799978	-7.729792595	-103.6818542	7.838858128	1.0
13	1.527423859	8.415380478	0.1549199969	-7.460922241	-103.2709808	7.526046753	1.0
[Spine]
10	0	0.7457100153	0	-6.746927261	2.244476795	-89.96381378	1.0
11	0	0.7457100153	0	-6.759112358	2.142263412	-90.00866699	1.0
12	0	0.7457100153	0	-6.723792076	2.091468811	-90.02338409	1.0
13	0	0.7457100153	0	-6.618030548	2.007182598	-90.10774994	1.0
[Spine1]
10	0	2.140589952	0	9.264421463	0.5916110277	1.920928121	1.0
11	0	2.140589952	0	9.19918251	0.5548135638	1.983487725	1.0
12	0	2.140589952	0	9.250074387	0.5349992514	1.964676142	1.0
13	0	2.140589952	0	9.349141121	0.5105572343	1.968842506	1.0
[Neck]
10	0	2.32246995	0	-14.77510262	5.347702503	-90.18391418	1.0
11	0	2.32246995	0	-14.80366802	5.374039173	-90.2829895	1.0
12	0	2.32246995	0	-14.951931	5.33225441	-90.32217407	1.0
13	0	2.32246995	0	-15.19970512	5.3519907	-90.34420013	1.0
[Head]
10	0	1.409579992	0.1818799973	-3.720820427	-1.99704504	-90.82631683	1.0
11	0	1.409579992	0.1818799973	-3.750736237	-1.951812387	-90.94325256	1.0
12	0	1.409579992	0.1818799973	-3.796526432	-1.991369367	-90.95779419	1.0
13	0	1.409579992	0.1818799973	-3.857639313	-1.966525793	-90.9872818	1.0
[LeftShoulder]
10	0.3668199778	1.946700096	-0.02662999928	-13.18273354	-12.96201706	-4.775145054	1.0
11	0.3668199778	1.946700096	-0.02662999928	-13.50151443	-12.98075676	-4.670940399	1.0
12	0.3668199778	1.946700096	-0.02662999928	-13.43812275	-13.10903645	-4.670527458	1.0
13	0.3668199778	1.946700096	-0.02662999928	-14.38527107	-13.08105564	-4.240455151	1.0
[LeftArm]
10	1.140689969	0	0	36.41976929	15.8817749	-75.01233673	1.0
11	1.140689969	0	0	36.35146332	16.36123848	-75.27069855	1.0
12	1.140689969	0	0	36.00431442	16.71944809	-75.30374146	1.0
13	1.140689969	0	0	35.48897934	17.90431786	-75.62574005	1.0
[LeftForeArm]
10	2.749800205	0	0	-15.45656776	-9.955698013	0.1813256443	1.0
11	2.749800205	0	0	-15.22831535	-9.543334961	-0.07046832889	1.0
12	2.749800205	0	0	-15.13731003	-9.548368454	-0.2514954507	1.0
13	2.749800205	0	0	-14.7263279	-9.567641258	-0.6080450416	1.0
[LeftHand]
10	2.295179844	0	0	-15.42147255	-2.19149065	-1.013442039	1.0
11	2.295179844	0	0	-15.21318054	-2.243668079	-1.076006293	1.0
12	2.295179844	0	0	-15.12826729	-2.178938389	-1.582717299	1.0
13	2.295179844	0	0	-14.72576046	-2.549184799	-2.314365387	1.0
[RightShoulder]
10	-0.3601199985	1.946700096	-0.02662999928	-5.065578938	3.730397701	176.5023651	1.0
11	-0.3601199985	1.946700096	-0.02662999928	-5.074585915	3.71622777	176.4865112	1.0
12	-0.3601199985	1.946700096	-0.02662999928	-5.064150333	3.721770048	176.4787598	1.0
13	-0.3601199985	1.946700096	-0.02662999928	-5.088224888	3.75205946	176.4805756	1.0
[RightArm]
10	-1.140689969	0	0	54.98161316	1.155102372	-98.64673615	1.0
11	-1.140689969	0	0	55.03163528	1.139293909	-98.65103912	1.0
12	-1.140689969	0	0	54.95729828	1.089032888	-98.65026855	1.0
13	-1.140689969	0	0	54.9310112	1.011214018	-98.6557312	1.0
[RightForeArm]
10	-2.749800205	0	0	0.3249787092	14.52069187	177.2059479	1.0
11	-2.749800205	0	0	0.2635378242	14.74672699	177.1718597	1.0
12	-2.749800205	0	0	0.2020142674	15.20285606	177.1060638	1.0
13	-2.749800205	0	0	0.1542773396	15.90118217	177.0181274	1.0
[RightHand]
10	-2.295179844	0	0	0.6349957585	10.81244469	179.5143433	1.0
11	-2.295179844	0	0	0.6129972935	10.90155315	179.8254395	1.0
12	-2.295179844	0	0	0.5433703661	11.21661949	179.5427551	1.0
13	-2.295179844	0	0	0.4753025472	11.63972855	179.0635986	1.0
[LeftUpLeg]
10	0.9094099998	0	0	9.393830299	-4.15837431	89.55028534	1.0
11	0.9094099998	0	0	9.08059597	-4.158885479	89.51200867	1.0
12	0.9094099998	0	0	8.74678421	-4.075264931	89.4832077	1.0
13	0.9094099998	0	0	8.173334122	-4.529157162	89.35231781	1.0
[LeftLeg]
10	0	-4.498080254	0	-1.407821417	-4.012135029	88.6175766	1.0
11	0	-4.498080254	0	-1.038135171	-4.018025875	88.68704224	1.0
12	0	-4.498080254	0	-0.3868361413	-4.184678078	88.76481628	1.0
13	0	-4.498080254	0	0.7222844958	-4.904309273	88.5834198	1.0
[LeftFoot]
10	0	-3.729400158	0	-77.16510773	113.5311584	-22.59973526	1.0
11	0	-3.729400158	0	-77.86006165	113.4995499	-23.17360687	1.0
12	0	-3.729400158	0	-79.83154297	114.2055206	-24.7675209	1.0
13	0	-3.729400158	0	-79.1857605	114.6753616	-23.58001709	1.0
[LeftToeBase]
10	0	-0.5911099911	1.364109993	0	0	0	1.0
11	0	-0.5911099911	1.364109993	0	0	0	1.0
12	0	-0.5911099911	1.364109993	0	0	0	1.0
13	0	-0.5911099911	1.364109993	0	0	0	1.0
[RightUpLeg]
10	-0.9094099998	0	0	7.049049377	-0.05791468173	91.80406952	1.0
11	-0.9094099998	0	0	6.918940544	-0.4583561718	91.71026611	1.0
12	-0.9094099998	0	0	6.786626816	-0.6838596463	91.70046234	1.0
13	-0.9094099998	0	0	6.46958971	-1.253949046	91.67719269	1.0
[RightLeg]
10	0	-4.498080254	0	0.7432861328	-0.198756367	92.74784851	1.0
11	0	-4.498080254	0	0.8050548434	-0.1601538658	92.81783295	1.0
12	0	-4.498080254	0	1.107335567	-0.04263099656	92.79728699	1.0
13	0	-4.498080254	0	1.771713018	-0.3994229734	92.431427	1.0
[RightFoot]
10	0	-3.729400158	0	31.3301487	67.84971619	80.93151855	1.0
11	0	-3.729400158	0	31.62582207	67.85318756	81.2303009	1.0
12	0	-3.729400158	0	31.05519676	67.73468018	80.76183319	1.0
13	0	-3.729400158	0	31.99546432	67.88265228	82.17242432	1.0
[RightToeBase]
10	0	-0.5911099911	1.364109993	0	0	0	1.0
11	0	-0.5911099911	1.364109993	0	0	0	1.0
12	0	-0.5911099911	1.364109993	0	0	0	1.0
13	0	-0.5911099911	1.364109993	0	0	0	1.0
[EndOfFile]
